<?xml version="1.0" standalone="no"?>
<!DOCTYPE svg PUBLIC "-//W3C//DTD SVG 20010904//EN"
 "http://www.w3.org/TR/2001/REC-SVG-20010904/DTD/svg10.dtd">
<svg version="1.0" xmlns="http://www.w3.org/2000/svg"
 width="553.000000pt" height="238.000000pt" viewBox="0 0 553.000000 238.000000"
 preserveAspectRatio="xMidYMid meet">

<g transform="translate(0.000000,238.000000) scale(0.100000,-0.100000)"
fill="#000000" stroke="none">
<path d="M1020 1684 l0 -168 -32 31 c-47 44 -93 64 -158 70 -119 11 -230 -50
-282 -155 -32 -65 -33 -196 -2 -263 46 -98 126 -151 242 -157 89 -5 143 13
192 63 19 19 37 35 41 35 5 0 9 -21 11 -47 3 -49 4 -50 58 -44 7 1 9 136 8
399 l-3 397 -37 3 -38 3 0 -167z m-105 -157 c21 -12 53 -41 69 -65 39 -55 48
-157 21 -227 -35 -94 -144 -149 -244 -125 -64 15 -124 67 -146 125 -27 70 -18
172 20 227 59 85 191 116 280 65z"/>
<path d="M1565 1801 c-48 -12 -90 -37 -124 -76 l-31 -36 0 56 0 55 -40 0 -40
0 0 -375 0 -375 40 0 40 0 0 253 c0 261 5 302 43 357 66 98 255 107 336 15 43
-50 51 -107 51 -380 l0 -245 34 0 34 0 4 263 c3 224 6 268 21 302 39 88 113
131 214 123 117 -9 177 -64 193 -179 5 -35 10 -164 10 -286 l0 -223 35 0 35 0
0 260 c0 149 -5 281 -11 310 -23 108 -113 179 -237 188 -103 7 -171 -16 -235
-80 -35 -35 -52 -47 -55 -37 -11 32 -84 89 -134 104 -54 16 -131 18 -183 6z"/>
<path d="M2777 1606 c-87 -32 -146 -93 -173 -182 -31 -103 -9 -212 57 -288 53
-60 107 -87 186 -94 87 -7 144 12 204 65 l49 45 0 -51 0 -51 35 0 35 0 0 280
0 280 -40 0 -40 0 0 -46 0 -46 -44 39 c-25 22 -62 45 -84 51 -52 16 -138 14
-185 -2z m201 -75 c75 -38 115 -109 115 -201 0 -129 -86 -221 -207 -222 -132
-1 -215 84 -216 220 0 117 50 188 160 223 36 12 104 3 148 -20z"/>
<path d="M3505 1604 c-99 -35 -165 -131 -173 -248 -2 -39 1 -90 7 -113 18 -67
70 -133 131 -167 50 -28 63 -31 140 -31 93 0 142 18 189 69 34 36 41 33 41
-19 0 -44 0 -45 34 -45 l33 0 -1 280 -1 280 -37 0 -38 0 0 -47 0 -47 -32 31
c-71 69 -194 92 -293 57z m218 -76 c63 -35 98 -93 104 -170 12 -150 -72 -249
-211 -249 -143 0 -237 126 -206 278 30 141 186 211 313 141z"/>
<path d="M4295 1596 c-27 -13 -59 -33 -69 -45 -28 -31 -36 -26 -36 19 0 38 -1
40 -32 40 l-33 0 3 -280 3 -280 34 0 35 0 0 178 c0 151 3 183 19 217 35 77 85
105 185 105 49 0 71 -5 97 -23 62 -41 69 -68 69 -284 l0 -193 41 0 41 0 -4
203 c-4 226 -13 266 -77 319 -63 54 -190 65 -276 24z"/>
<path d="M2135 870 c-4 -6 1 -10 9 -10 14 0 16 -23 16 -170 0 -144 -2 -170
-15 -170 -8 0 -15 -4 -15 -10 0 -5 18 -10 40 -10 22 0 40 5 40 10 0 6 -9 10
-20 10 -19 0 -20 7 -20 174 0 144 -3 175 -15 179 -8 4 -17 2 -20 -3z"/>
<path d="M3995 870 c3 -5 13 -10 21 -10 12 0 14 -29 14 -169 0 -168 0 -170
-22 -174 -13 -2 0 -4 27 -4 28 0 39 2 27 4 -22 4 -24 9 -22 71 1 37 2 118 1
180 l-1 112 -26 0 c-14 0 -23 -4 -19 -10z"/>
<path d="M1066 839 c-21 -25 -26 -41 -26 -85 0 -41 -4 -56 -16 -61 -15 -5 -15
-7 0 -15 23 -13 24 -158 1 -158 -8 0 -15 -4 -15 -10 0 -5 18 -10 40 -10 22 0
40 5 40 10 0 6 -9 10 -20 10 -18 0 -20 7 -20 79 l0 80 33 4 32 4 -32 1 -33 2
0 56 c0 65 10 88 48 108 18 10 21 15 10 16 -9 0 -28 -14 -42 -31z"/>
<path d="M1158 863 c6 -2 18 -2 25 0 6 3 1 5 -13 5 -14 0 -19 -2 -12 -5z"/>
<path d="M1883 863 c15 -4 17 -21 17 -174 0 -164 -1 -169 -21 -169 -11 0 -17
-4 -14 -10 11 -17 37 -11 42 10 5 20 5 20 30 0 59 -46 140 -10 150 66 5 36 1
46 -25 75 -37 42 -88 46 -127 9 l-25 -23 0 111 c0 110 0 112 -22 111 -17 -1
-19 -2 -5 -6z m172 -209 c34 -37 33 -78 -4 -115 -58 -58 -141 -18 -141 67 0
67 98 99 145 48z"/>
<path d="M2822 753 c-2 -59 -3 -62 -29 -66 l-28 -4 28 -2 27 -1 0 -85 0 -85
28 1 c23 2 24 2 5 6 -22 4 -23 9 -23 83 l0 79 33 4 32 4 -32 1 -32 2 -4 63 -3
62 -2 -62z"/>
<path d="M3882 753 c-2 -55 -4 -62 -24 -66 l-23 -4 23 -2 c21 -1 22 -5 22 -86
l0 -85 28 1 c23 2 24 2 5 6 -22 4 -23 9 -23 83 l0 79 33 4 32 4 -32 1 -32 2
-4 63 -3 62 -2 -62z"/>
<path d="M1770 750 c0 -5 5 -10 10 -10 6 0 10 5 10 10 0 6 -4 10 -10 10 -5 0
-10 -4 -10 -10z"/>
<path d="M1330 682 c-64 -31 -70 -117 -13 -162 31 -24 86 -26 104 -3 13 15 12
15 -8 5 -30 -16 -64 -15 -91 4 -37 25 -26 40 53 70 41 16 75 34 75 40 0 14
-40 50 -65 58 -11 3 -36 -2 -55 -12z m91 -23 c11 -11 19 -22 17 -24 -6 -6
-131 -55 -140 -55 -16 0 -8 48 13 74 26 33 79 36 110 5z"/>
<path d="M2302 680 c-43 -26 -57 -64 -42 -112 17 -59 92 -88 136 -52 19 15 19
16 -1 8 -50 -18 -72 -16 -101 9 -16 14 -27 27 -24 29 3 2 37 17 75 33 39 15
74 31 78 35 12 11 -34 58 -63 65 -16 3 -37 -2 -58 -15z m92 -16 c9 -8 16 -19
16 -24 0 -11 -138 -65 -146 -57 -11 10 5 56 26 77 24 24 82 27 104 4z"/>
<path d="M3030 690 c-13 -8 -12 -10 3 -10 9 0 17 5 17 10 0 12 -1 12 -20 0z"/>
<path d="M3155 691 c-37 -16 -60 -51 -60 -93 0 -33 6 -45 34 -70 28 -25 39
-29 69 -24 19 3 40 11 46 17 8 9 6 10 -9 4 -45 -18 -71 -16 -98 5 -15 12 -27
25 -27 29 0 4 33 20 73 36 39 15 76 31 80 35 12 11 -34 59 -63 64 -14 3 -34 1
-45 -3z m79 -27 c9 -8 16 -19 16 -23 0 -10 -139 -65 -147 -58 -10 10 7 57 27
77 24 24 82 27 104 4z"/>
<path d="M3410 690 c-11 -7 -6 -10 22 -10 47 0 58 -19 58 -99 0 -54 -2 -60
-22 -64 -13 -2 -3 -4 22 -4 25 -1 38 1 29 4 -13 3 -18 20 -21 80 -3 60 -7 78
-23 89 -22 16 -44 18 -65 4z"/>
<path d="M3634 690 c-28 -11 -64 -58 -64 -82 0 -28 27 -76 49 -88 33 -17 83
-12 108 12 l23 21 0 -50 c0 -58 -24 -97 -66 -107 -15 -4 -24 -10 -21 -13 11
-10 66 18 82 43 11 18 15 51 15 136 0 77 -3 108 -10 98 -6 -10 -10 -11 -10 -3
0 14 -51 43 -72 42 -7 0 -23 -4 -34 -9z m94 -33 c51 -47 11 -137 -62 -137 -47
0 -91 50 -82 94 15 73 87 95 144 43z"/>
<path d="M4090 690 c-11 -8 -8 -9 12 -4 45 10 68 -23 68 -100 0 -59 -2 -65
-22 -69 -13 -2 -3 -4 22 -4 25 -1 37 1 28 4 -15 4 -18 16 -18 74 0 56 -4 73
-20 89 -22 22 -47 25 -70 10z"/>
<path d="M1507 682 c22 -7 73 -67 73 -85 0 -21 -52 -77 -71 -77 -11 0 -17 -4
-14 -10 3 -5 21 -10 40 -10 19 0 37 5 40 10 3 6 -1 10 -10 10 -15 0 -14 3 2
30 21 37 26 37 53 3 19 -24 20 -28 6 -31 -9 -2 -14 -8 -11 -13 8 -12 72 -12
80 1 3 6 -4 10 -17 10 -15 0 -32 13 -49 38 l-27 37 28 40 c15 22 38 43 51 46
18 5 12 7 -21 8 -30 0 -40 -2 -31 -8 11 -7 10 -15 -9 -41 l-23 -33 -24 29
c-28 35 -28 41 -5 47 9 3 -5 5 -33 5 -31 0 -42 -2 -28 -6z"/>
<path d="M1758 680 c20 -9 22 -16 22 -85 0 -68 -2 -75 -20 -75 -11 0 -20 -4
-20 -10 0 -5 18 -10 40 -10 22 0 40 5 40 10 0 6 -7 10 -15 10 -12 0 -15 16
-15 85 l0 85 -27 -1 c-27 0 -27 -1 -5 -9z"/>
<path d="M2647 672 c-22 -24 -21 -35 1 -55 26 -24 36 -21 12 3 -16 16 -18 25
-10 40 13 25 55 26 69 3 9 -16 10 -16 11 -2 0 32 -58 39 -83 11z"/>
<path d="M2930 686 c0 -2 9 -6 20 -9 11 -3 20 -1 20 4 0 5 -9 9 -20 9 -11 0
-20 -2 -20 -4z"/>
<path d="M3310 686 c0 -2 9 -6 20 -9 11 -3 20 -1 20 4 0 5 -9 9 -20 9 -11 0
-20 -2 -20 -4z"/>
<path d="M3768 683 c6 -2 18 -2 25 0 6 3 1 5 -13 5 -14 0 -19 -2 -12 -5z"/>
<path d="M2987 662 c-12 -13 -17 -37 -17 -80 0 -55 -2 -61 -22 -65 -13 -2 -3
-4 22 -4 25 -1 37 1 28 4 -25 6 -26 118 -1 145 9 10 14 18 11 18 -3 0 -12 -8
-21 -18z"/>
<path d="M3352 593 c-2 -66 -4 -72 -24 -76 -13 -2 -3 -4 22 -4 25 -1 37 1 28
4 -14 3 -18 19 -21 76 l-3 72 -2 -72z"/>
<path d="M2708 584 c26 -18 28 -37 6 -58 -21 -21 -61 -20 -73 2 -9 15 -10 15
-11 1 0 -19 20 -29 55 -29 23 0 55 33 55 57 0 15 -28 43 -43 43 -6 0 -1 -7 11
-16z"/>
<path d="M1150 510 c0 -5 18 -10 40 -10 22 0 40 5 40 10 0 6 -18 10 -40 10
-22 0 -40 -4 -40 -10z"/>
<path d="M3610 400 c8 -5 22 -9 30 -9 10 0 8 3 -5 9 -27 12 -43 12 -25 0z"/>
</g>
</svg>
