<svg id="Layer_1" data-name="Layer 1" xmlns="http://www.w3.org/2000/svg" viewBox="0 0 439.57 525.49"><defs><style>.cls-1{fill:#1d9bad;}.cls-2{fill:#9fc54c;}.cls-3{fill:#d1e285;}.cls-4{fill:#ede633;}.cls-5{fill:#f2ea4f;}.cls-6{fill:#efc51f;}.cls-7{fill:#ec7a23;}.cls-8{fill:#b93781;}.cls-9{fill:#5e3186;}.cls-10{fill:#1f67a1;}.cls-11{fill:#206daa;}.cls-12{fill:#989898;}</style></defs><title>DMaan Logo</title><polygon class="cls-1" points="340.59 168.44 390.87 138.71 389.95 111.13 340.59 168.44"/><polygon class="cls-1" points="338.68 166.81 388.37 108.45 388.63 77.5 338.68 166.81"/><polygon class="cls-1" points="333.9 164.68 333.51 106.27 357.63 92.86 333.9 164.68"/><polygon class="cls-1" points="336.29 165.48 360.75 92.84 387.14 76.68 336.29 165.48"/><polygon class="cls-2" points="351.31 185.43 400.96 185.93 412.43 165.47 351.31 185.43"/><polygon class="cls-2" points="350.64 183.4 412.46 162.82 426.27 140.44 350.64 183.4"/><polygon class="cls-2" points="348.1 179.75 373.53 137.1 396.97 137.96 348.1 179.75"/><polygon class="cls-2" points="349.49 181.38 399.24 139.32 425.55 139.18 349.49 181.38"/><polygon class="cls-3" points="352.21 206.28 395.51 230.59 415.41 218.16 352.21 206.28"/><polygon class="cls-3" points="352.61 204.18 416.7 215.85 439.57 202.85 352.61 204.18"/><polygon class="cls-3" points="352.13 199.76 394.92 174.58 415.07 186.6 352.13 199.76"/><polygon class="cls-3" points="352.56 201.86 416.41 188.88 439.54 201.41 352.56 201.86"/><polygon class="cls-4" points="341.46 221.41 368.27 263.2 391.67 261.58 341.46 221.41"/><polygon class="cls-4" points="342.8 219.73 393.9 260.15 420.19 259.42 342.8 219.73"/><polygon class="cls-4" points="344.45 215.61 394.06 213.48 406.2 233.56 344.45 215.61"/><polygon class="cls-4" points="343.85 217.67 406.31 236.21 420.85 258.13 343.85 217.67"/><polygon class="cls-5" points="326.76 230.81 326.76 289.46 351.06 302.76 326.76 230.81"/><polygon class="cls-5" points="329.15 229.99 354.19 302.76 380.8 318.81 329.15 229.99"/><polygon class="cls-5" points="333.43 226.95 384.11 256.47 383.38 284.17 333.43 226.95"/><polygon class="cls-5" points="331.52 228.61 381.8 286.87 382.27 317.94 331.52 228.61"/><polygon class="cls-6" points="310.09 231.88 284.35 284.75 295.76 321.2 310.09 231.88"/><polyline class="cls-6" points="309.6 390.5 297.17 331.43 312.48 232.11"/><polygon class="cls-6" points="315.08 232.18 340.43 285.24 328.75 321.61 315.08 232.18"/><polyline class="cls-6" points="312.88 391.2 326.38 332.37 312.87 232.79"/><polygon class="cls-6" points="292.45 225.03 226.15 269.08 214.48 319.45 292.45 225.03"/><polyline class="cls-6" points="183.11 409.82 209.11 332.36 295.07 226.94"/><polygon class="cls-6" points="298.06 228.81 291.27 308.12 252.7 342.55 298.06 228.81"/><polyline class="cls-6" points="186.47 412.89 242.55 353.48 295.07 227.99"/><polygon class="cls-7" points="280.89 211.38 183.91 216.99 140.6 262.88 280.89 211.38"/><polyline class="cls-7" points="51.91 338.81 126.99 273.18 282.48 215"/><polygon class="cls-7" points="284.48 218.81 228.5 298.21 166.66 310.76 284.48 218.81"/><polyline class="cls-7" points="53.55 344.11 149.24 316.02 281.83 216.11"/><polygon class="cls-8" points="278.58 190.28 186.41 144.73 122.56 164.3 278.58 190.28"/><polyline class="cls-8" points="1.26 187.78 104.66 166.67 278.15 194.45"/><polygon class="cls-8" points="277.99 199 184.97 242.78 121.51 221.98 277.99 199"/><polyline class="cls-8" points="0 193.52 102.72 217.71 276.96 195.12"/><polygon class="cls-9" points="284.84 171.97 234.06 96.48 176.42 83.47 284.84 171.97"/><polyline class="cls-9" points="72.93 48.2 161.63 77.42 282.67 174.98"/><polygon class="cls-9" points="280.56 178.41 189.87 171.16 150.26 127.3 280.56 178.41"/><polyline class="cls-9" points="69.44 52.06 137.71 115.77 281.47 174.98"/><polygon class="cls-10" points="300.38 57.01 281.67 92.94 313.6 157.27 300.38 57.01"/><polygon class="cls-10" points="316.9 23.78 303.32 52.77 315.29 158.27 318.55 158.27 316.9 23.78"/><polygon class="cls-10" points="337.86 58.01 356.57 93.94 324.64 158.27 337.86 58.01"/><polygon class="cls-10" points="321.39 23.78 334.97 52.77 323.01 158.27 319.75 158.27 321.39 23.78"/><polygon class="cls-11" points="263.41 54.73 297.59 90.16 302.84 158.68 263.41 54.73"/><polygon class="cls-11" points="210.15 0 255.63 48.03 299.52 160.71 210.15 0"/><polygon class="cls-11" points="207.39 1.94 296.71 162.54 212.6 52.06 207.39 1.94"/><polygon class="cls-11" points="216.02 61.76 294.54 164.17 220.79 111.3 216.02 61.76"/><path class="cls-2" d="M262.86,657.49v-9H296a65.86,65.86,0,0,1,15.89,1.85,49.81,49.81,0,0,1,13,5.1,28.94,28.94,0,0,1,8.79,7.52,14.94,14.94,0,0,1,3.23,9.14,15.43,15.43,0,0,1-.18,2.33,10.36,10.36,0,0,1-.64,2.33.48.48,0,0,1-.12.33,15.24,15.24,0,0,0-2.41-5,23.18,23.18,0,0,0-4.28-4.45,1.18,1.18,0,0,0-.35-.27,42.23,42.23,0,0,0-12.78-6.72,57.65,57.65,0,0,0-16.53-3h-.23c-.63,0-1.24-.08-1.82-.1s-1.19,0-1.82,0Zm0,1.62H280v26.65H296a37.52,37.52,0,0,0,9.21-1.08,30.39,30.39,0,0,0,7.56-2.94,16.38,16.38,0,0,0,5.16-4.35,8.71,8.71,0,0,0,1.88-5.33,9.37,9.37,0,0,0-3-6.68,21.34,21.34,0,0,0-8-4.86,52.3,52.3,0,0,1,10,3.14,36.2,36.2,0,0,1,7.92,4.62,23.33,23.33,0,0,1,5.33,5.8,13.26,13.26,0,0,1,2.11,6.68,24.87,24.87,0,0,1-6.09,6,41.32,41.32,0,0,1-8.8,4.72,58.17,58.17,0,0,1-10.84,3.07A67.15,67.15,0,0,1,296,695.67H262.86Z" transform="translate(-201.59 -212.45)"/><path class="cls-10" d="M378,648.78a25.24,25.24,0,0,0-8.55,5.5,12.44,12.44,0,0,0-3.76,7.32v20.31h-.11v13.56H348.46V662.68a9,9,0,0,1,1.93-5.53,17.51,17.51,0,0,1,5.34-4.52,30.34,30.34,0,0,1,7.91-3.07,40,40,0,0,1,9.56-1.11A38,38,0,0,1,378,648.78Zm32.6-.13a25.14,25.14,0,0,0-8.56,5.5,13,13,0,0,0-3.87,7.25,2.37,2.37,0,0,0-.35,1.15v32.92H380.7V662.68c0-1.17-.74-2.18-2.23-3a10.32,10.32,0,0,0-5.27-1.29,11.23,11.23,0,0,0-3.87.61,14,14,0,0,1,4.51-5.53,26.81,26.81,0,0,1,7.8-4.05,27.67,27.67,0,0,1,7.5,2.5,30.37,30.37,0,0,1,7.45-2.6,41.09,41.09,0,0,1,8.85-.91A43.28,43.28,0,0,1,410.6,648.65Zm19.58,13.9v19.36h-.11v13.56H413V662.55c0-1.17-.73-2.18-2.17-3a10.4,10.4,0,0,0-5.34-1.28,11.53,11.53,0,0,0-3.63.54,13.46,13.46,0,0,1,4.57-5.47,29,29,0,0,1,7.86-4,32.06,32.06,0,0,1,6.45,2.06,22.7,22.7,0,0,1,5,3,13.42,13.42,0,0,1,3.28,3.81A8.71,8.71,0,0,1,430.18,662.55Z" transform="translate(-201.59 -212.45)"/><path class="cls-10" d="M470.63,648.58a45.8,45.8,0,0,1,7.63.61h.11a38.12,38.12,0,0,0-7.74,2.43,28.24,28.24,0,0,0-6.09,3.57,17.68,17.68,0,0,0-4.11,4.46,10.45,10.45,0,0,0-1.64,5.12.85.85,0,0,0-.12.54v30.5H441.56v-30.5a10.58,10.58,0,0,1,2.28-6.47,20.7,20.7,0,0,1,6.22-5.33,34.4,34.4,0,0,1,9.26-3.61A47,47,0,0,1,470.63,648.58Zm-8.79,33.47V672.2h20.75v-6.89a4.37,4.37,0,0,0-.93-2.66,8.2,8.2,0,0,0-2.58-2.16,15.66,15.66,0,0,0-3.81-1.45,19.17,19.17,0,0,0-4.64-.54,17.36,17.36,0,0,0-7.38,1.48,18,18,0,0,1,7.56-6.37,37.75,37.75,0,0,1,12-3.48,38.93,38.93,0,0,1,6.86,2.53,23.68,23.68,0,0,1,5.33,3.51,15.75,15.75,0,0,1,3.46,4.29,10.13,10.13,0,0,1,1.23,4.85v30.5H482.59V682.05Z" transform="translate(-201.59 -212.45)"/><path class="cls-10" d="M540.28,648.58a45.59,45.59,0,0,1,7.62.61H548a38.12,38.12,0,0,0-7.74,2.43,28.32,28.32,0,0,0-6.1,3.57,17.64,17.64,0,0,0-4.1,4.46,10.35,10.35,0,0,0-1.64,5.12.85.85,0,0,0-.12.54v30.5H511.2v-30.5a10.53,10.53,0,0,1,2.29-6.47,20.53,20.53,0,0,1,6.21-5.33A34.6,34.6,0,0,1,529,649.9,46.93,46.93,0,0,1,540.28,648.58Zm-8.79,33.47V672.2h20.75v-6.89a4.32,4.32,0,0,0-.94-2.66,8,8,0,0,0-2.58-2.16,15.35,15.35,0,0,0-3.81-1.45,19.08,19.08,0,0,0-4.63-.54A17.36,17.36,0,0,0,532.9,660a18,18,0,0,1,7.56-6.37,37.75,37.75,0,0,1,12-3.48,39.22,39.22,0,0,1,6.86,2.53,23.91,23.91,0,0,1,5.33,3.51,15.94,15.94,0,0,1,3.46,4.29,10.13,10.13,0,0,1,1.23,4.85v30.5H552.24V682.05Z" transform="translate(-201.59 -212.45)"/><path class="cls-10" d="M580.85,665a10.53,10.53,0,0,1,2.29-6.47,20.53,20.53,0,0,1,6.21-5.33,34.66,34.66,0,0,1,9.26-3.61,47,47,0,0,1,11.32-1.32,45.59,45.59,0,0,1,7.62.61,38.89,38.89,0,0,0-7.8,2.46,27.59,27.59,0,0,0-6.15,3.68,18.35,18.35,0,0,0-4.11,4.55,9.83,9.83,0,0,0-1.52,5.23v30.77H580.85Zm21.69-5.33a18.57,18.57,0,0,1,7.51-6.34,36.6,36.6,0,0,1,12-3.51,40.71,40.71,0,0,1,6.91,2.53,23.53,23.53,0,0,1,5.4,3.51,15.94,15.94,0,0,1,3.46,4.29A10.1,10.1,0,0,1,639,665v30.57H621.89V665a4.32,4.32,0,0,0-.94-2.66,8.09,8.09,0,0,0-2.58-2.16,15.35,15.35,0,0,0-3.81-1.45,19.14,19.14,0,0,0-4.63-.54A17.4,17.4,0,0,0,602.54,659.71Z" transform="translate(-201.59 -212.45)"/><path class="cls-12" d="M301.3,718.87v5.89h8.34v3.45H301.3v9.34h-3.46V715.42H311v3.45Z" transform="translate(-201.59 -212.45)"/><path class="cls-12" d="M319.31,715.48h3.46v22h-3.46Z" transform="translate(-201.59 -212.45)"/><path class="cls-12" d="M345.9,734.07v3.45H332.61v-22h3.46v18.59Z" transform="translate(-201.59 -212.45)"/><path class="cls-12" d="M367.55,734.07v3.45H354.26v-22h3.46v18.59Z" transform="translate(-201.59 -212.45)"/><path class="cls-12" d="M379.37,718.88v5.65h8.34V728h-8.34v6.09H389v3.45H375.91v-22H389v3.4Z" transform="translate(-201.59 -212.45)"/><path class="cls-12" d="M410.35,737.52,404.41,729h-2.7v8.53h-3.46l0-22h6.85a7.29,7.29,0,0,1,7.47,7.08,6.44,6.44,0,0,1-4.36,6.14l6.41,8.82Zm-5.18-11.4a3.77,3.77,0,0,0,3.81-3.64,3.68,3.68,0,0,0-3.81-3.57h-3.48v7.21Z" transform="translate(-201.59 -212.45)"/><path class="cls-12" d="M454.69,737.71c-1.52,0-3.53-.9-5.63-2.31a8.58,8.58,0,0,1-6.25,2.54c-5,0-7.54-3.62-7.54-6.87a7.84,7.84,0,0,1,3.72-6.36,9.5,9.5,0,0,1-1.34-4.23,5.82,5.82,0,0,1,11.57-.6l-3.35.63a2.64,2.64,0,0,0-2.5-2.38,2.38,2.38,0,0,0-2.3,2.48c0,2.55,3.42,7,7,10.14a11.57,11.57,0,0,0,.92-4.25l3.25,0a15,15,0,0,1-1.43,6.41,7.93,7.93,0,0,0,3.88,1.63Zm-8.41-4.44a36.38,36.38,0,0,1-5.65-6,4.39,4.39,0,0,0-2.07,3.6c0,2.09,1.4,3.7,4.07,3.7A5.52,5.52,0,0,0,446.28,733.27Z" transform="translate(-201.59 -212.45)"/><path class="cls-12" d="M475.8,726.51a11.51,11.51,0,0,1,11.37-11.41,11.12,11.12,0,0,1,7.66,3.36l-2,2.72a8.19,8.19,0,0,0-5.71-2.57,7.9,7.9,0,0,0,0,15.79,8.16,8.16,0,0,0,5.71-2.62l2,2.79a10.51,10.51,0,0,1-7.6,3.3A11.47,11.47,0,0,1,475.8,726.51Z" transform="translate(-201.59 -212.45)"/><path class="cls-12" d="M501.18,726.53a11.4,11.4,0,1,1,11.38,11.34A11.44,11.44,0,0,1,501.18,726.53Zm19.29,0a7.9,7.9,0,1,0-7.91,7.87A7.94,7.94,0,0,0,520.47,726.5Z" transform="translate(-201.59 -212.45)"/><path class="cls-12" d="M546,734.07v3.45H532.75v-22h3.46v18.59Z" transform="translate(-201.59 -212.45)"/><path class="cls-12" d="M552.41,726.53a11.4,11.4,0,1,1,11.38,11.34A11.44,11.44,0,0,1,552.41,726.53Zm19.3,0a7.91,7.91,0,1,0-7.92,7.87A7.94,7.94,0,0,0,571.71,726.5Z" transform="translate(-201.59 -212.45)"/><path class="cls-12" d="M596.09,737.52,590.16,729h-2.71v8.53H584v-22h6.85a7.28,7.28,0,0,1,7.46,7.08,6.44,6.44,0,0,1-4.36,6.14l6.41,8.82Zm-5.18-11.4a3.76,3.76,0,0,0,3.81-3.64,3.68,3.68,0,0,0-3.81-3.57h-3.47v7.21Z" transform="translate(-201.59 -212.45)"/></svg>